<svg width="37" height="16" viewBox="0 0 37 16" fill="none" xmlns="http://www.w3.org/2000/svg">
<path d="M22.4261 4.79403V3.27273H29.5938V4.79403H26.9219V12H25.098V4.79403H22.4261ZM32.7482 12.1278C32.0863 12.1278 31.5138 11.9872 31.0309 11.706C30.5508 11.4219 30.18 11.027 29.9187 10.5213C29.6573 10.0128 29.5266 9.4233 29.5266 8.75284C29.5266 8.0767 29.6573 7.4858 29.9187 6.98011C30.18 6.47159 30.5508 6.0767 31.0309 5.79545C31.5138 5.51136 32.0863 5.36932 32.7482 5.36932C33.4102 5.36932 33.9812 5.51136 34.4613 5.79545C34.9442 6.0767 35.3164 6.47159 35.5778 6.98011C35.8391 7.4858 35.9698 8.0767 35.9698 8.75284C35.9698 9.4233 35.8391 10.0128 35.5778 10.5213C35.3164 11.027 34.9442 11.4219 34.4613 11.706C33.9812 11.9872 33.4102 12.1278 32.7482 12.1278ZM32.7567 10.7216C33.0579 10.7216 33.3093 10.6364 33.511 10.4659C33.7127 10.2926 33.8647 10.0568 33.967 9.75852C34.0721 9.46023 34.1246 9.12074 34.1246 8.74006C34.1246 8.35938 34.0721 8.01989 33.967 7.72159C33.8647 7.4233 33.7127 7.1875 33.511 7.0142C33.3093 6.84091 33.0579 6.75426 32.7567 6.75426C32.4528 6.75426 32.1971 6.84091 31.9897 7.0142C31.7852 7.1875 31.6303 7.4233 31.5252 7.72159C31.4229 8.01989 31.3718 8.35938 31.3718 8.74006C31.3718 9.12074 31.4229 9.46023 31.5252 9.75852C31.6303 10.0568 31.7852 10.2926 31.9897 10.4659C32.1971 10.6364 32.4528 10.7216 32.7567 10.7216Z" fill="#B8221C"/>
<path d="M1 7C0.447715 7 0 7.44772 0 8C0 8.55228 0.447715 9 1 9L1 7ZM13.7071 8.70711C14.0976 8.31658 14.0976 7.68342 13.7071 7.29289L7.34315 0.928932C6.95262 0.538408 6.31946 0.538408 5.92893 0.928932C5.53841 1.31946 5.53841 1.95262 5.92893 2.34315L11.5858 8L5.92893 13.6569C5.53841 14.0474 5.53841 14.6805 5.92893 15.0711C6.31946 15.4616 6.95262 15.4616 7.34315 15.0711L13.7071 8.70711ZM1 9L13 9V7L1 7L1 9Z" fill="#B8221C"/>
</svg>
