<svg width="51" height="17" viewBox="0 0 51 17" fill="none" xmlns="http://www.w3.org/2000/svg">
<path d="M21.7585 13V4.27273H27.5369V5.79403H23.6037V7.87358H27.1534V9.39489H23.6037V13H21.7585ZM28.6385 13V6.45455H30.3984V7.59659H30.4666C30.5859 7.19034 30.7862 6.88352 31.0675 6.67614C31.3487 6.46591 31.6726 6.3608 32.0391 6.3608C32.13 6.3608 32.228 6.36648 32.3331 6.37784C32.4382 6.3892 32.5305 6.40483 32.6101 6.42472V8.03551C32.5249 8.00994 32.407 7.98722 32.2564 7.96733C32.1058 7.94744 31.968 7.9375 31.843 7.9375C31.576 7.9375 31.3374 7.99574 31.1271 8.11222C30.9197 8.22585 30.755 8.38494 30.6328 8.58949C30.5135 8.79403 30.4538 9.02983 30.4538 9.29688V13H28.6385ZM36.2013 13.1278C35.5394 13.1278 34.967 12.9872 34.484 12.706C34.0039 12.4219 33.6332 12.027 33.3718 11.5213C33.1104 11.0128 32.9798 10.4233 32.9798 9.75284C32.9798 9.0767 33.1104 8.4858 33.3718 7.98011C33.6332 7.47159 34.0039 7.0767 34.484 6.79545C34.967 6.51136 35.5394 6.36932 36.2013 6.36932C36.8633 6.36932 37.4343 6.51136 37.9144 6.79545C38.3974 7.0767 38.7695 7.47159 39.0309 7.98011C39.2923 8.4858 39.4229 9.0767 39.4229 9.75284C39.4229 10.4233 39.2923 11.0128 39.0309 11.5213C38.7695 12.027 38.3974 12.4219 37.9144 12.706C37.4343 12.9872 36.8633 13.1278 36.2013 13.1278ZM36.2099 11.7216C36.511 11.7216 36.7624 11.6364 36.9641 11.4659C37.1658 11.2926 37.3178 11.0568 37.4201 10.7585C37.5252 10.4602 37.5778 10.1207 37.5778 9.74006C37.5778 9.35938 37.5252 9.01989 37.4201 8.72159C37.3178 8.4233 37.1658 8.1875 36.9641 8.0142C36.7624 7.84091 36.511 7.75426 36.2099 7.75426C35.9059 7.75426 35.6502 7.84091 35.4428 8.0142C35.2383 8.1875 35.0835 8.4233 34.9783 8.72159C34.8761 9.01989 34.8249 9.35938 34.8249 9.74006C34.8249 10.1207 34.8761 10.4602 34.9783 10.7585C35.0835 11.0568 35.2383 11.2926 35.4428 11.4659C35.6502 11.6364 35.9059 11.7216 36.2099 11.7216ZM40.6033 13V6.45455H42.3335V7.60938H42.4102C42.5465 7.22585 42.7738 6.9233 43.092 6.7017C43.4102 6.48011 43.7908 6.36932 44.234 6.36932C44.6829 6.36932 45.065 6.48153 45.3803 6.70597C45.6957 6.92756 45.9059 7.22869 46.011 7.60938H46.0792C46.2127 7.23438 46.4542 6.93466 46.8036 6.71023C47.1559 6.48295 47.5721 6.36932 48.0522 6.36932C48.663 6.36932 49.1587 6.56392 49.5394 6.95312C49.9229 7.33949 50.1147 7.88778 50.1147 8.59801V13H48.3036V8.95597C48.3036 8.59233 48.207 8.3196 48.0138 8.13778C47.8207 7.95597 47.5792 7.86506 47.2894 7.86506C46.9599 7.86506 46.7028 7.97017 46.5181 8.1804C46.3335 8.38778 46.2411 8.66193 46.2411 9.00284V13H44.4812V8.91761C44.4812 8.59659 44.3888 8.34091 44.2042 8.15057C44.0224 7.96023 43.7823 7.86506 43.484 7.86506C43.2823 7.86506 43.1005 7.91619 42.9386 8.01847C42.7795 8.1179 42.6531 8.25852 42.5593 8.44034C42.4656 8.61932 42.4187 8.82955 42.4187 9.07102V13H40.6033Z" fill="#B8221C"/>
<path d="M14.8315 5.5561C13.9417 1.72488 10.5262 0 7.52595 0C7.52595 0 7.52596 0 7.51748 0C4.52572 0 1.10175 1.71659 0.211861 5.5478C-0.779734 9.82683 1.89842 13.4507 4.32232 15.7312C5.22068 16.5771 6.37333 17 7.52595 17C8.67858 17 9.8312 16.5771 10.7211 15.7312C13.145 13.4507 15.8231 9.83512 14.8315 5.5561ZM7.52595 9.71073C6.05128 9.71073 4.85625 8.54146 4.85625 7.09854C4.85625 5.65561 6.05128 4.48634 7.52595 4.48634C9.00063 4.48634 10.1956 5.65561 10.1956 7.09854C10.1956 8.54146 9.00063 9.71073 7.52595 9.71073Z" fill="#B8221C"/>
</svg>
